<svg width="512" height="512" viewBox="0 0 512 512" fill="none" xmlns="http://www.w3.org/2000/svg">
  <!-- 背景底座 -->
  <rect width="512" height="512" rx="120" fill="#f5f5f7"/>
  <rect x="40" y="40" width="432" height="432" rx="80" fill="#ffffff"/>
  
  <!-- 文件夹图标 -->
  <g>
    <!-- 文件夹主体 -->
    <path d="M140 240L100 280L100 380L140 420L372 420L412 380L412 280L372 240H140Z" fill="url(#businessFolderGradient)"/>
    <!-- 文件夹顶部 -->
    <path d="M140 240L372 240L372 280L140 260V240Z" fill="url(#businessFolderTopGradient)"/>
    <!-- 文件夹细节 -->
    <path d="M180 280V380" stroke="rgba(255,255,255,0.3)" stroke-width="8" stroke-linecap="round"/>
    <path d="M260 280V380" stroke="rgba(255,255,255,0.3)" stroke-width="8" stroke-linecap="round"/>
    <path d="M340 280V380" stroke="rgba(255,255,255,0.3)" stroke-width="8" stroke-linecap="round"/>
  </g>
  
  <!-- 渐变定义 -->
  <defs>
    <linearGradient id="businessFolderGradient" x1="100" y1="240" x2="412" y2="420" gradientUnits="userSpaceOnUse">
      <stop stop-color="#1976D2"/>
      <stop offset="1" stop-color="#0D47A1"/>
    </linearGradient>
    <linearGradient id="businessFolderTopGradient" x1="140" y1="240" x2="372" y2="280" gradientUnits="userSpaceOnUse">
      <stop stop-color="#1565C0"/>
      <stop offset="1" stop-color="#0A2463"/>
    </linearGradient>
  </defs>
  
  <!-- 高光效果 -->
  <circle cx="160" cy="260" r="40" fill="white" opacity="0.2"/>
  
  <!-- 阴影效果 -->
  <rect x="50" y="50" width="412" height="412" rx="70" fill="rgba(0,0,0,0.05)"/>
</svg>